<svg xmlns="http://www.w3.org/2000/svg" width="232.53" height="35" viewBox="0 0 232.53 35"><rect class="svg__rect" x="0" y="0" width="232.53" height="35" fill="#3BC4F3"/><rect class="svg__rect" x="232.53" y="0" width="0" height="35" fill="#389AD5"/><path class="svg__text" d="M13.97 18.13L13.97 18.13L13.97 17.46Q13.97 15.53 14.90 14.44Q15.82 13.35 17.48 13.35L17.48 13.35Q18.90 13.35 19.74 14.05Q20.58 14.76 20.75 16.08L20.75 16.08L19.30 16.08Q19.05 14.54 17.51 14.54L17.51 14.54Q16.51 14.54 16.00 15.26Q15.48 15.98 15.46 17.37L15.46 17.37L15.46 18.02Q15.46 19.40 16.04 20.17Q16.63 20.93 17.66 20.93L17.66 20.93Q18.80 20.93 19.28 20.42L19.28 20.42L19.28 18.75L17.52 18.75L17.52 17.62L20.76 17.62L20.76 20.89Q20.29 21.50 19.47 21.81Q18.65 22.12 17.61 22.12L17.61 22.12Q16.54 22.12 15.71 21.63Q14.89 21.14 14.44 20.24Q13.99 19.33 13.97 18.13ZM30.95 22L25.37 22L25.37 13.47L30.91 13.47L30.91 14.66L26.86 14.66L26.86 17.02L30.36 17.02L30.36 18.19L26.86 18.19L26.86 20.82L30.95 20.82L30.95 22ZM36.63 22L35.15 22L35.15 13.47L36.63 13.47L40.44 19.54L40.44 13.47L41.91 13.47L41.91 22L40.43 22L36.63 15.95L36.63 22ZM52.23 22L46.65 22L46.65 13.47L52.19 13.47L52.19 14.66L48.14 14.66L48.14 17.02L51.64 17.02L51.64 18.19L48.14 18.19L48.14 20.82L52.23 20.82L52.23 22ZM57.91 22L56.43 22L56.43 13.47L59.43 13.47Q60.90 13.47 61.71 14.13Q62.51 14.79 62.51 16.05L62.51 16.05Q62.51 16.90 62.10 17.48Q61.68 18.06 60.95 18.37L60.95 18.37L62.86 21.92L62.86 22L61.27 22L59.56 18.71L57.91 18.71L57.91 22ZM57.91 14.66L57.91 17.52L59.43 17.52Q60.18 17.52 60.61 17.15Q61.03 16.77 61.03 16.11L61.03 16.11Q61.03 15.43 60.64 15.05Q60.25 14.68 59.48 14.66L59.48 14.66L57.91 14.66ZM67.68 22L66.14 22L69.37 13.47L70.70 13.47L73.92 22L72.38 22L71.68 20.01L68.38 20.01L67.68 22ZM70.03 15.28L68.79 18.82L71.26 18.82L70.03 15.28ZM79.56 14.66L76.92 14.66L76.92 13.47L83.69 13.47L83.69 14.66L81.03 14.66L81.03 22L79.56 22L79.56 14.66ZM93.03 22L87.45 22L87.45 13.47L92.98 13.47L92.98 14.66L88.93 14.66L88.93 17.02L92.43 17.02L92.43 18.19L88.93 18.19L88.93 20.82L93.03 20.82L93.03 22ZM105.24 18.86L102.37 13.47L104.02 13.47L105.98 17.51L107.94 13.47L109.58 13.47L106.72 18.86L106.72 22L105.24 22L105.24 18.86ZM113.23 18.00L113.23 18.00L113.23 17.52Q113.23 16.28 113.67 15.32Q114.11 14.37 114.92 13.86Q115.72 13.35 116.77 13.35Q117.81 13.35 118.62 13.85Q119.42 14.35 119.86 15.29Q120.30 16.23 120.31 17.48L120.31 17.48L120.31 17.96Q120.31 19.21 119.87 20.16Q119.44 21.10 118.63 21.61Q117.83 22.12 116.78 22.12L116.78 22.12Q115.74 22.12 114.93 21.61Q114.12 21.10 113.68 20.17Q113.23 19.23 113.23 18.00ZM114.71 17.46L114.71 17.96Q114.71 19.36 115.26 20.13Q115.81 20.90 116.78 20.90L116.78 20.90Q117.76 20.90 118.29 20.15Q118.82 19.40 118.82 17.96L118.82 17.96L118.82 17.51Q118.82 16.09 118.29 15.34Q117.75 14.58 116.77 14.58L116.77 14.58Q115.81 14.58 115.27 15.33Q114.72 16.09 114.71 17.46L114.71 17.46ZM124.64 19.16L124.64 19.16L124.64 13.47L126.11 13.47L126.11 19.18Q126.11 20.03 126.55 20.48Q126.98 20.93 127.82 20.93L127.82 20.93Q129.54 20.93 129.54 19.13L129.54 19.13L129.54 13.47L131.01 13.47L131.01 19.17Q131.01 20.53 130.14 21.32Q129.27 22.12 127.82 22.12L127.82 22.12Q126.36 22.12 125.50 21.33Q124.64 20.55 124.64 19.16ZM137.06 22L135.58 22L135.58 13.47L138.58 13.47Q140.06 13.47 140.86 14.13Q141.66 14.79 141.66 16.05L141.66 16.05Q141.66 16.90 141.25 17.48Q140.84 18.06 140.10 18.37L140.10 18.37L142.02 21.92L142.02 22L140.43 22L138.72 18.71L137.06 18.71L137.06 22ZM137.06 14.66L137.06 17.52L138.59 17.52Q139.34 17.52 139.76 17.15Q140.18 16.77 140.18 16.11L140.18 16.11Q140.18 15.43 139.79 15.05Q139.40 14.68 138.63 14.66L138.63 14.66L137.06 14.66ZM153.52 22L152.04 22L152.04 13.47L155.30 13.47Q156.73 13.47 157.57 14.21Q158.41 14.96 158.41 16.18L158.41 16.18Q158.41 17.44 157.59 18.13Q156.76 18.83 155.28 18.83L155.28 18.83L153.52 18.83L153.52 22ZM153.52 14.66L153.52 17.64L155.30 17.64Q156.09 17.64 156.51 17.27Q156.92 16.90 156.92 16.19L156.92 16.19Q156.92 15.50 156.50 15.09Q156.08 14.68 155.34 14.66L155.34 14.66L153.52 14.66ZM164.18 22L162.69 22L162.69 13.47L165.69 13.47Q167.17 13.47 167.97 14.13Q168.78 14.79 168.78 16.05L168.78 16.05Q168.78 16.90 168.36 17.48Q167.95 18.06 167.21 18.37L167.21 18.37L169.13 21.92L169.13 22L167.54 22L165.83 18.71L164.18 18.71L164.18 22ZM164.18 14.66L164.18 17.52L165.70 17.52Q166.45 17.52 166.87 17.15Q167.29 16.77 167.29 16.11L167.29 16.11Q167.29 15.43 166.90 15.05Q166.51 14.68 165.74 14.66L165.74 14.66L164.18 14.66ZM172.90 18.00L172.90 18.00L172.90 17.52Q172.90 16.28 173.34 15.32Q173.79 14.37 174.59 13.86Q175.40 13.35 176.44 13.35Q177.48 13.35 178.29 13.85Q179.09 14.35 179.53 15.29Q179.97 16.23 179.98 17.48L179.98 17.48L179.98 17.96Q179.98 19.21 179.55 20.16Q179.11 21.10 178.31 21.61Q177.50 22.12 176.45 22.12L176.45 22.12Q175.41 22.12 174.60 21.61Q173.79 21.10 173.35 20.17Q172.91 19.23 172.90 18.00ZM174.38 17.46L174.38 17.96Q174.38 19.36 174.93 20.13Q175.48 20.90 176.45 20.90L176.45 20.90Q177.44 20.90 177.97 20.15Q178.50 19.40 178.50 17.96L178.50 17.96L178.50 17.51Q178.50 16.09 177.96 15.34Q177.42 14.58 176.44 14.58L176.44 14.58Q175.48 14.58 174.94 15.33Q174.39 16.09 174.38 17.46L174.38 17.46ZM183.84 19.57L183.84 19.57L185.32 19.57Q185.32 20.25 185.65 20.59Q185.99 20.93 186.63 20.93L186.63 20.93Q187.23 20.93 187.58 20.54Q187.94 20.14 187.94 19.45L187.94 19.45L187.94 13.47L189.41 13.47L189.41 19.45Q189.41 20.68 188.65 21.40Q187.88 22.12 186.63 22.12L186.63 22.12Q185.29 22.12 184.57 21.44Q183.84 20.77 183.84 19.57ZM199.67 22L194.09 22L194.09 13.47L199.63 13.47L199.63 14.66L195.58 14.66L195.58 17.02L199.08 17.02L199.08 18.19L195.58 18.19L195.58 20.82L199.67 20.82L199.67 22ZM203.60 18.19L203.60 18.19L203.60 17.39Q203.60 16.19 204.03 15.27Q204.45 14.35 205.25 13.85Q206.05 13.35 207.10 13.35L207.10 13.35Q208.51 13.35 209.38 14.12Q210.24 14.89 210.38 16.29L210.38 16.29L208.90 16.29Q208.80 15.37 208.36 14.96Q207.93 14.55 207.10 14.55L207.10 14.55Q206.14 14.55 205.62 15.26Q205.10 15.96 205.09 17.33L205.09 17.33L205.09 18.09Q205.09 19.47 205.58 20.20Q206.08 20.92 207.03 20.92L207.03 20.92Q207.90 20.92 208.34 20.53Q208.78 20.14 208.90 19.22L208.90 19.22L210.38 19.22Q210.25 20.59 209.37 21.35Q208.49 22.12 207.03 22.12L207.03 22.12Q206.01 22.12 205.24 21.63Q204.46 21.15 204.04 20.26Q203.62 19.37 203.60 18.19ZM216.37 14.66L213.73 14.66L213.73 13.47L220.50 13.47L220.50 14.66L217.84 14.66L217.84 22L216.37 22L216.37 14.66Z" fill="#FFFFFF"/><path class="svg__text" d="" fill="#FFFFFF" x="245.53"/></svg>