<svg xmlns="http://www.w3.org/2000/svg" width="106.375" height="35.059"><path fill="#45a4b8" d="M25.083 0h81.292v35H25.083z"/><path fill="#38c1d0" d="M0 .029h63.125v35H0z"/><path d="M81.387 21.346a3.165 3.165 0 01-2.238.762 4.036 4.036 0 01-3.108-1.4l1.14-1.645a3.554 3.554 0 00.93.708 1.9 1.9 0 00.834.24.707.707 0 00.546-.216.914.914 0 00.2-.637V15.58h-2.858v-1.992h5.376v5.628a2.76 2.76 0 01-.822 2.13zm9.305-5.718a4.26 4.26 0 00-1.32-.276.9.9 0 00-.51.126.414.414 0 00-.186.366.573.573 0 00.36.522 6.372 6.372 0 001.14.4 11.024 11.024 0 011.464.51 2.7 2.7 0 011 .786 2.151 2.151 0 01.426 1.392 2.369 2.369 0 01-.462 1.481 2.769 2.769 0 01-1.248.906 4.892 4.892 0 01-1.758.3 6.744 6.744 0 01-2.166-.366 6.019 6.019 0 01-1.878-1l.936-1.9a5.6 5.6 0 001.554.93 4.277 4.277 0 001.578.378 1.121 1.121 0 00.636-.155.508.508 0 00.228-.444.581.581 0 00-.372-.534 6.335 6.335 0 00-1.152-.39 10.531 10.531 0 01-1.452-.474 2.575 2.575 0 01-1-.762 2.081 2.081 0 01-.42-1.356 2.386 2.386 0 01.432-1.422 2.724 2.724 0 011.218-.93 4.77 4.77 0 011.83-.324 6.76 6.76 0 011.884.27 6.245 6.245 0 011.632.714l-.924 1.92a8.056 8.056 0 00-1.47-.668zm-70.585-2.159v5.7a2.771 2.771 0 01-.87 2.153 3.305 3.305 0 01-2.317.794 3.329 3.329 0 01-2.326-.782 2.784 2.784 0 01-.861-2.171v-5.7h1.477v5.7a1.809 1.809 0 00.434 1.3 1.7 1.7 0 001.277.45q1.711 0 1.711-1.8v-5.644zm8.682 6.331a1.03 1.03 0 00-.4-.867 4.759 4.759 0 00-1.427-.615 6.89 6.89 0 01-1.641-.691 2.189 2.189 0 01-1.166-1.91A2.079 2.079 0 0125 14.02a3.4 3.4 0 012.183-.668 3.687 3.687 0 011.588.328 2.606 2.606 0 011.1.935 2.4 2.4 0 01.4 1.345h-1.482a1.321 1.321 0 00-.419-1.037 1.738 1.738 0 00-1.2-.375 1.812 1.812 0 00-1.128.309 1.029 1.029 0 00-.4.864.931.931 0 00.434.779 5.006 5.006 0 001.43.606 6.54 6.54 0 011.6.673 2.544 2.544 0 01.885.867 2.258 2.258 0 01.281 1.146 2.03 2.03 0 01-.817 1.7 3.545 3.545 0 01-2.218.63 4.168 4.168 0 01-1.7-.343 2.859 2.859 0 01-1.207-.946 2.358 2.358 0 01-.431-1.406h1.482a1.38 1.38 0 00.48 1.125 2.1 2.1 0 001.377.4 1.828 1.828 0 001.163-.313 1.011 1.011 0 00.388-.839zM39.2 18.191h-3.5V20.8h4.1V22h-5.589v-8.531h5.537v1.2h-4.054v2.351h3.5zm8.9 1.609a1.03 1.03 0 00-.4-.867 4.759 4.759 0 00-1.427-.615 6.89 6.89 0 01-1.641-.691 2.189 2.189 0 01-1.166-1.91 2.079 2.079 0 01.841-1.7 3.4 3.4 0 012.183-.668 3.687 3.687 0 011.588.328 2.606 2.606 0 011.1.935 2.4 2.4 0 01.4 1.345H48.1a1.321 1.321 0 00-.419-1.037 1.738 1.738 0 00-1.2-.375 1.812 1.812 0 00-1.128.309 1.029 1.029 0 00-.4.864.931.931 0 00.434.779 5.006 5.006 0 001.43.606 6.54 6.54 0 011.6.673 2.544 2.544 0 01.885.867 2.258 2.258 0 01.281 1.146 2.03 2.03 0 01-.817 1.7 3.545 3.545 0 01-2.218.63 4.168 4.168 0 01-1.7-.343 2.859 2.859 0 01-1.207-.946 2.358 2.358 0 01-.431-1.406h1.482a1.38 1.38 0 00.48 1.125 2.1 2.1 0 001.377.4 1.828 1.828 0 001.163-.313 1.011 1.011 0 00.388-.836z" fill="#fff"/></svg>